<?xml version="1.0" standalone="no"?>
<!DOCTYPE svg PUBLIC "-//W3C//DTD SVG 20010904//EN"
 "http://www.w3.org/TR/2001/REC-SVG-20010904/DTD/svg10.dtd">
<svg version="1.0" xmlns="http://www.w3.org/2000/svg"
 width="1255.000000pt" height="1255.000000pt" viewBox="0 0 1255.000000 1255.000000"
 preserveAspectRatio="xMidYMid meet">
<metadata>
Created by potrace 1.14, written by Peter Selinger 2001-2017
</metadata>
<g transform="translate(0.000000,1255.000000) scale(0.100000,-0.100000)"
fill="#000000" stroke="none">
<path d="M7141 10128 c0 -9 -6 -20 -13 -24 -7 -4 -8 -3 -4 4 7 12 -5 16 -39
12 -11 -1 -31 -3 -45 -4 -14 0 -28 -5 -32 -11 -6 -7 -10 -7 -15 0 -9 12 -23
13 -40 2 -7 -5 -13 -4 -13 2 0 13 -22 8 -53 -12 -15 -10 -27 -14 -27 -9 0 4
-9 8 -19 8 -11 0 -18 -3 -15 -7 2 -4 -3 -10 -12 -13 -8 -3 -12 -2 -9 4 3 6 2
10 -3 10 -6 0 -13 -8 -16 -17 -6 -14 -9 -15 -15 -4 -6 10 -10 10 -16 2 -5 -8
-11 -9 -19 -2 -9 8 -18 6 -32 -5 -10 -8 -12 -12 -4 -8 12 7 13 5 3 -8 -7 -8
-9 -19 -5 -24 4 -5 -2 -2 -13 7 -11 8 -26 14 -32 13 -7 -1 -18 -2 -24 -3 -5 0
-8 -5 -5 -10 4 -5 -9 -9 -26 -8 -18 1 -38 -4 -44 -12 -6 -7 -23 -13 -38 -13
-18 0 -26 -5 -22 -13 3 -10 -2 -12 -19 -9 -16 3 -31 -3 -46 -18 -20 -21 -21
-21 -15 -3 6 20 6 20 -9 1 -11 -15 -15 -16 -16 -5 0 8 -4 4 -9 -8 -5 -13 -15
-23 -22 -23 -9 0 -9 3 2 10 8 5 11 10 5 10 -15 -1 -45 -26 -40 -34 3 -3 0 -2
-6 3 -13 11 -39 3 -39 -11 0 -6 8 -5 18 3 14 11 15 11 5 -1 -14 -15 -46 -23
-38 -9 5 7 -54 40 -80 44 -5 0 -9 7 -7 15 3 11 0 11 -12 0 -9 -7 -16 -8 -16
-2 0 5 -7 13 -16 16 -10 4 -13 2 -9 -7 4 -6 1 -5 -7 3 -7 8 -24 17 -37 18 -13
2 -31 10 -38 18 -17 16 -27 19 -18 4 3 -5 1 -10 -4 -10 -6 0 -11 5 -11 11 0 5
-4 7 -10 4 -5 -3 -10 -2 -10 3 0 6 -7 13 -16 16 -8 3 -12 2 -9 -4 9 -15 -6
-12 -24 4 -20 17 -96 32 -86 17 3 -7 0 -8 -9 -5 -9 3 -13 11 -9 18 4 6 0 5 -9
-2 -14 -11 -18 -10 -27 5 -6 10 -11 14 -11 9 0 -5 -8 -2 -17 5 -11 10 -14 10
-9 2 4 -7 2 -13 -3 -13 -6 0 -11 6 -11 13 0 8 -4 7 -10 -3 -8 -12 -10 -12 -10
-1 0 11 -3 11 -17 0 -15 -12 -16 -12 -11 2 5 13 0 16 -23 14 -16 -1 -29 2 -29
7 0 6 -7 5 -15 -2 -11 -9 -15 -9 -15 -1 0 9 -5 9 -20 1 -14 -8 -20 -8 -20 0 0
7 -6 8 -18 1 -11 -6 -24 -6 -35 0 -9 6 -17 7 -17 3 0 -3 -7 -1 -15 6 -13 11
-14 10 -9 -5 6 -14 4 -16 -7 -9 -18 11 -79 13 -85 2 -3 -4 -13 -5 -22 0 -22
10 -43 9 -61 -3 -10 -5 -16 -4 -19 4 -3 9 -7 9 -18 0 -11 -9 -14 -9 -14 0 0 7
-5 9 -12 4 -18 -11 -38 -13 -38 -3 0 10 -27 7 -37 -5 -4 -4 -2 -5 6 0 10 6 12
4 7 -4 -5 -7 -11 -10 -14 -7 -3 3 -12 0 -20 -7 -13 -9 -14 -9 -8 1 9 15 1 15
-26 1 -16 -9 -19 -8 -12 3 6 10 5 11 -7 1 -12 -10 -18 -10 -29 0 -10 10 -11 9
-5 -2 6 -11 4 -13 -8 -8 -10 3 -17 2 -17 -4 0 -6 -5 -7 -10 -4 -6 4 -16 2 -23
-4 -7 -5 -25 -8 -40 -7 -19 2 -27 -1 -27 -13 0 -14 -2 -14 -10 -1 -8 13 -14 8
-12 -10 1 -8 -42 -5 -55 3 -8 5 -11 1 -9 -10 3 -14 -3 -18 -28 -17 -17 1 -41
-5 -52 -13 -12 -8 -28 -12 -35 -11 -7 2 -14 -3 -15 -9 -1 -7 -2 -16 -3 -19 0
-4 -8 -1 -16 6 -12 10 -15 10 -15 -1 0 -11 -2 -11 -10 1 -8 13 -10 13 -10 -2
0 -9 -5 -20 -12 -24 -7 -4 -8 -3 -4 4 5 8 2 10 -8 6 -9 -3 -13 -10 -10 -15 3
-5 -2 -6 -10 -3 -9 3 -16 1 -16 -5 0 -7 -8 -11 -17 -9 -11 2 -17 -2 -15 -11 3
-12 0 -12 -12 -2 -12 10 -17 8 -26 -9 -6 -12 -14 -19 -17 -16 -3 3 -12 -2 -20
-12 -8 -9 -12 -12 -9 -6 3 6 -1 11 -8 11 -8 0 -12 -7 -9 -14 3 -8 2 -13 -3
-12 -20 3 -35 -2 -30 -10 3 -5 -1 -12 -10 -15 -10 -4 -13 -2 -8 6 4 7 3 8 -4
4 -7 -4 -12 -13 -12 -20 0 -8 -10 -12 -24 -11 -19 2 -23 -1 -19 -13 4 -10 2
-13 -5 -8 -7 4 -12 2 -12 -4 0 -6 -4 -8 -10 -5 -5 3 -10 1 -10 -4 0 -6 -7 -11
-16 -11 -8 0 -13 -4 -9 -9 3 -5 -4 -12 -15 -16 -11 -3 -20 -14 -21 -23 0 -11
-2 -13 -6 -4 -3 9 -10 7 -24 -9 -10 -12 -16 -27 -12 -33 4 -6 -1 -5 -10 3 -15
12 -21 9 -18 -11 0 -4 -8 -10 -19 -13 -11 -4 -20 -13 -20 -20 0 -9 -6 -12 -17
-8 -12 5 -15 2 -10 -10 4 -10 1 -17 -6 -17 -7 0 -21 -11 -31 -25 -10 -13 -22
-22 -27 -19 -5 3 -6 -1 -3 -9 3 -9 -3 -17 -16 -20 -12 -3 -19 -10 -15 -16 5
-10 -6 -15 -26 -13 -4 1 -6 -6 -5 -16 0 -9 -4 -16 -11 -15 -6 1 -10 -8 -8 -22
2 -20 0 -23 -11 -14 -11 9 -14 8 -14 -5 0 -11 -5 -14 -12 -10 -6 4 -8 3 -5 -3
4 -6 -6 -25 -22 -42 -17 -18 -24 -32 -17 -35 6 -2 3 -5 -6 -5 -10 -1 -17 -7
-15 -13 1 -7 -4 -12 -11 -10 -8 1 -11 -2 -7 -8 3 -5 2 -10 -4 -10 -6 0 -8 -6
-5 -14 3 -8 0 -17 -5 -21 -6 -3 -9 -11 -6 -16 3 -5 -1 -6 -9 -3 -11 4 -16 0
-16 -10 0 -9 -4 -16 -9 -16 -5 0 -12 -7 -15 -16 -6 -15 -4 -15 11 -3 16 13 17
12 4 -3 -23 -30 -48 -21 -42 15 1 5 -3 6 -9 2 -6 -3 -10 3 -10 15 0 16 -4 20
-16 16 -8 -3 -12 -2 -9 4 3 6 1 10 -6 10 -8 0 -8 4 1 15 11 13 10 14 -4 9 -12
-5 -15 -2 -9 12 4 12 3 15 -5 10 -7 -4 -12 -1 -12 9 0 8 -7 18 -15 21 -8 4
-22 21 -31 40 -9 19 -20 31 -25 28 -5 -3 -9 4 -9 16 0 12 -4 18 -10 15 -5 -3
-10 1 -10 10 0 9 -4 14 -9 11 -4 -3 -17 4 -27 17 -13 14 -14 18 -4 12 10 -6 9
-4 -2 6 -9 9 -14 20 -10 25 4 5 -1 2 -11 -6 -10 -7 -17 -9 -16 -4 4 22 -2 35
-13 28 -8 -5 -9 -2 -4 11 5 15 4 16 -9 5 -9 -7 -15 -9 -14 -4 4 21 -2 35 -11
29 -6 -3 -10 1 -10 9 0 9 -5 16 -11 16 -5 0 -8 4 -5 9 3 5 -2 8 -12 7 -9 0
-16 5 -15 12 2 6 -2 12 -8 12 -5 0 -7 6 -3 13 5 8 2 8 -9 -2 -15 -12 -17 -11
-17 4 0 11 -5 15 -16 11 -8 -3 -12 -2 -9 4 3 6 1 10 -5 10 -6 0 -8 5 -5 10 3
6 1 10 -5 10 -6 0 -8 5 -4 12 4 7 3 8 -5 4 -6 -4 -9 -13 -5 -19 3 -7 -1 -4 -9
6 -8 9 -19 17 -24 17 -6 0 -21 13 -34 29 -16 21 -26 26 -31 18 -5 -8 -8 -6 -8
7 0 12 -5 16 -15 12 -8 -3 -14 0 -12 7 1 7 -6 11 -17 9 -11 -2 -15 1 -11 7 3
6 -1 11 -9 11 -9 0 -16 7 -16 15 0 9 -6 12 -15 9 -9 -4 -23 2 -34 14 -14 17
-20 19 -30 9 -9 -9 -13 -7 -18 11 -3 13 -11 21 -18 18 -7 -2 -21 2 -32 10 -10
9 -12 12 -4 8 9 -4 12 -3 8 3 -4 6 -19 8 -33 5 -21 -4 -26 -2 -22 10 4 10 -1
13 -23 12 -16 -1 -26 2 -23 7 5 8 -3 11 -22 8 -4 0 -11 5 -15 13 -7 10 -9 10
-9 0 0 -7 -5 -10 -10 -7 -6 4 -8 10 -5 15 3 4 -6 7 -20 5 -14 -1 -25 1 -25 4
0 14 -49 28 -59 18 -8 -8 -11 -8 -11 1 0 7 -9 12 -21 12 -13 0 -18 4 -13 13 5
7 0 6 -11 -3 -10 -8 -16 -10 -12 -3 7 12 2 13 -53 14 -13 0 -29 4 -35 9 -15
12 -88 16 -105 5 -13 -7 -13 -6 -2 7 10 13 9 16 -9 21 -16 4 -19 2 -15 -11 5
-15 4 -15 -6 -2 -15 17 -60 21 -70 5 -5 -6 -8 -5 -8 3 0 9 -7 11 -21 7 -16 -5
-19 -4 -14 5 5 9 4 11 -3 6 -22 -13 -52 -15 -52 -3 0 7 -8 3 -17 -8 -12 -15
-14 -16 -10 -3 5 13 0 17 -21 15 -18 -1 -26 2 -24 11 1 8 -2 11 -8 7 -6 -3 -8
-10 -5 -15 3 -4 -4 -10 -15 -13 -11 -3 -18 -2 -15 3 2 4 -6 8 -20 8 -14 0 -22
-4 -19 -9 10 -16 -9 -9 -23 9 -8 9 -12 12 -9 6 3 -7 -1 -14 -9 -18 -8 -3 -15
0 -15 6 0 7 -4 7 -13 -1 -10 -8 -17 -7 -27 2 -10 9 -11 9 -6 0 5 -9 0 -13 -14
-13 -14 0 -19 4 -14 13 6 9 4 9 -8 -1 -9 -7 -27 -11 -41 -8 -17 3 -27 -1 -31
-11 -5 -12 -9 -13 -21 -3 -10 8 -15 9 -15 1 0 -6 -13 -9 -30 -7 -17 2 -30 0
-30 -5 0 -5 -7 -6 -16 -2 -9 3 -20 0 -25 -8 -7 -11 -9 -11 -9 -1 0 7 -5 10
-10 7 -6 -4 -7 -11 -4 -17 4 -6 -2 -6 -15 1 -13 7 -21 8 -21 2 0 -5 -9 -8 -19
-6 -11 2 -22 -3 -25 -10 -3 -8 -13 -11 -27 -8 -13 4 -20 2 -16 -4 3 -5 0 -10
-8 -10 -8 0 -15 4 -15 9 0 4 -5 8 -11 8 -5 0 -8 -4 -5 -8 2 -4 -4 -14 -16 -21
-11 -7 -18 -9 -15 -4 3 5 -3 9 -14 9 -10 0 -19 -6 -19 -14 0 -7 -4 -10 -10 -7
-5 3 -10 2 -10 -4 0 -5 -11 -8 -25 -7 -13 2 -23 -2 -22 -8 1 -6 -4 -10 -12 -8
-7 1 -19 -2 -27 -9 -8 -6 -20 -9 -28 -6 -10 4 -13 1 -9 -9 4 -10 0 -12 -13 -7
-12 4 -15 3 -10 -5 5 -8 -1 -12 -18 -12 -14 0 -29 -7 -34 -16 -5 -9 -12 -15
-15 -15 -30 4 -39 0 -28 -13 9 -11 6 -13 -19 -10 -21 3 -29 0 -24 -7 10 -16
-18 -30 -34 -17 -10 9 -12 8 -10 -3 2 -9 -5 -14 -19 -13 -18 0 -20 -2 -11 -13
9 -11 7 -12 -7 -6 -14 5 -17 3 -12 -9 4 -12 1 -14 -15 -10 -14 3 -19 1 -14 -6
4 -7 1 -12 -9 -12 -8 0 -18 -7 -22 -16 -3 -8 -11 -13 -17 -11 -7 3 -20 -1 -31
-9 -10 -8 -13 -14 -7 -14 7 0 12 -5 12 -11 0 -6 -7 -9 -15 -5 -8 3 -21 -1 -29
-9 -7 -8 -17 -11 -20 -7 -4 3 -4 -2 0 -12 5 -14 4 -17 -4 -12 -7 4 -12 2 -12
-4 0 -6 -4 -9 -9 -5 -9 5 -38 -35 -32 -43 2 -2 -1 -7 -5 -10 -4 -4 -4 -1 0 6
10 17 -2 15 -20 -3 -9 -8 -12 -20 -8 -27 5 -9 2 -8 -10 1 -15 12 -17 12 -14 0
2 -8 -3 -13 -11 -11 -12 3 -12 1 0 -14 8 -10 9 -15 3 -11 -14 8 -58 -28 -50
-41 3 -6 -2 -16 -12 -23 -16 -13 -16 -13 -2 5 14 18 14 19 -7 5 -12 -7 -20
-15 -18 -18 3 -2 -8 -15 -23 -29 -15 -13 -20 -21 -12 -16 13 7 13 5 1 -9 -7
-9 -17 -14 -22 -11 -5 3 -9 -4 -9 -16 0 -13 -4 -19 -12 -14 -8 5 -9 0 -6 -14
4 -12 2 -20 -3 -16 -5 3 -9 0 -9 -6 0 -6 -5 -8 -12 -4 -8 5 -9 2 -5 -9 4 -10
2 -16 -6 -14 -7 1 -11 -6 -9 -15 2 -11 -3 -18 -13 -18 -8 0 -15 -7 -15 -15 0
-8 -5 -15 -11 -15 -5 0 -8 -4 -4 -9 3 -5 1 -12 -5 -16 -6 -4 -8 -11 -5 -16 4
-5 -1 -9 -10 -9 -11 0 -15 -5 -11 -15 3 -9 -3 -24 -14 -35 -11 -11 -20 -22
-20 -25 0 -3 -9 -16 -21 -28 -46 -49 -68 -100 -64 -152 2 -32 -3 -59 -12 -74
-9 -14 -10 -21 -3 -16 7 4 4 -5 -6 -21 -11 -15 -14 -25 -9 -22 6 3 10 -4 10
-17 0 -18 -3 -21 -17 -14 -15 8 -16 5 -8 -21 5 -18 5 -32 -1 -36 -6 -3 -5 -12
3 -22 11 -13 11 -14 -1 -7 -11 6 -13 4 -8 -8 4 -10 0 -17 -11 -20 -15 -4 -15
-5 1 -6 17 -1 17 -2 2 -17 -11 -12 -13 -20 -5 -29 8 -9 8 -15 0 -20 -6 -3 -7
-11 -4 -17 4 -6 0 -14 -7 -19 -12 -7 -12 -9 0 -9 11 0 11 -3 0 -17 -12 -15
-12 -16 1 -8 9 5 7 0 -4 -14 -15 -16 -16 -20 -5 -16 10 4 16 0 16 -9 0 -8 -5
-12 -11 -10 -7 3 -11 -14 -10 -48 1 -29 -4 -59 -10 -67 -8 -11 -8 -13 0 -8 12
7 13 -50 1 -69 -3 -6 -3 -14 1 -18 12 -12 12 -87 0 -80 -7 4 -8 2 -4 -5 4 -6
11 -9 16 -6 4 3 10 -2 13 -10 4 -10 1 -12 -11 -9 -14 5 -13 3 2 -10 13 -10 15
-16 7 -16 -10 0 -11 -3 -2 -13 8 -10 7 -17 -1 -25 -7 -7 -8 -12 -2 -12 6 0 10
-17 9 -37 -1 -21 2 -48 6 -60 6 -16 5 -23 -4 -23 -7 -1 -5 -6 6 -14 9 -7 17
-16 17 -19 0 -4 -8 -4 -17 0 -15 5 -14 3 2 -10 11 -8 17 -18 13 -22 -4 -4 -3
-18 2 -31 7 -17 6 -24 -3 -24 -7 -1 -4 -6 6 -14 13 -10 15 -15 5 -19 -10 -4
-10 -7 1 -18 12 -12 13 -12 6 0 -5 9 -4 12 3 7 7 -4 8 -17 2 -36 -5 -17 -5
-28 0 -25 5 3 7 -11 6 -30 -3 -31 -1 -34 12 -23 13 11 14 11 8 -1 -5 -8 -3
-17 5 -22 12 -7 12 -9 0 -9 -10 0 -11 -3 -2 -14 9 -11 9 -16 0 -22 -8 -5 -5
-12 12 -24 20 -16 21 -20 10 -34 -11 -13 -11 -16 0 -16 11 0 11 -2 -1 -10 -14
-9 -7 -15 14 -11 5 1 6 -5 3 -14 -4 -8 -1 -15 5 -15 7 0 6 -5 -2 -15 -8 -9 -9
-15 -2 -15 6 0 9 -9 7 -20 -2 -12 2 -23 11 -27 8 -3 14 -10 13 -17 -3 -26 2
-37 14 -30 8 5 8 2 -2 -9 -7 -9 -9 -17 -4 -17 8 0 12 -15 15 -57 1 -9 5 -10
13 -3 9 8 11 4 7 -16 -5 -29 16 -76 31 -67 6 3 7 1 3 -6 -4 -6 -2 -19 6 -28
11 -14 11 -16 -2 -8 -13 8 -13 7 -1 -8 7 -9 10 -17 6 -17 -4 0 1 -8 12 -17 10
-10 13 -14 6 -9 -10 6 -12 4 -7 -8 3 -9 10 -16 14 -16 5 0 7 -9 5 -21 -3 -15
0 -19 10 -15 9 3 12 0 9 -8 -3 -7 2 -21 11 -30 9 -9 15 -23 12 -30 -3 -8 1
-17 10 -20 10 -4 14 -15 11 -31 -3 -13 -2 -24 1 -23 24 2 32 -4 26 -22 -5 -15
-2 -20 10 -20 13 0 16 -6 13 -24 -4 -18 -1 -23 10 -18 9 3 13 1 9 -5 -4 -6 -1
-14 5 -16 10 -4 10 -6 0 -6 -10 -1 -10 -4 0 -15 7 -8 16 -12 21 -9 4 2 7 1 6
-4 -5 -30 4 -52 22 -58 17 -6 19 -9 8 -16 -11 -7 -11 -9 3 -9 12 0 16 -6 13
-21 -4 -18 -2 -19 12 -7 13 10 15 10 9 0 -4 -7 -2 -20 6 -29 11 -14 11 -16 -2
-9 -8 4 -4 -1 9 -12 13 -10 21 -24 17 -31 -5 -7 -1 -9 11 -4 16 6 16 5 4 -10
-12 -15 -11 -17 3 -17 10 0 14 -4 11 -10 -3 -5 -1 -10 4 -10 6 0 11 -6 11 -14
0 -8 7 -17 16 -20 8 -3 12 -10 9 -16 -3 -5 -1 -10 5 -10 6 0 8 -4 5 -10 -3 -5
1 -10 9 -10 8 0 18 -5 22 -12 4 -7 3 -8 -4 -4 -8 5 -10 2 -6 -8 3 -9 12 -16
20 -16 8 0 11 -6 8 -15 -4 -8 1 -17 10 -21 9 -3 14 -9 12 -13 -2 -3 2 -12 10
-19 10 -10 14 -10 14 -1 0 7 3 9 6 6 4 -4 1 -14 -7 -24 -8 -9 -9 -14 -2 -10 6
4 14 3 18 -3 4 -6 11 -7 17 -4 5 4 5 -4 -2 -16 -11 -20 -10 -22 4 -17 10 4 15
3 12 -2 -3 -4 3 -16 14 -26 11 -10 17 -21 14 -26 -2 -4 7 -16 21 -25 15 -10
24 -23 21 -31 -3 -8 -1 -11 4 -8 6 3 10 -2 10 -12 0 -15 2 -16 10 -3 8 12 10
11 10 -5 0 -11 9 -27 20 -35 14 -10 16 -16 7 -22 -8 -5 -6 -8 6 -8 12 0 16 -4
11 -12 -6 -10 -4 -10 8 0 14 11 16 10 11 -9 -4 -15 -3 -20 5 -15 7 4 12 1 12
-8 0 -9 5 -16 11 -16 5 0 7 -4 4 -10 -3 -5 2 -10 12 -10 14 0 15 -2 5 -9 -10
-6 -8 -10 8 -14 14 -4 19 -10 14 -18 -5 -8 -2 -11 8 -7 9 4 15 0 15 -8 0 -8
-5 -14 -10 -14 -6 0 -7 -3 -4 -6 4 -4 13 -1 22 6 13 11 15 8 15 -20 0 -28 2
-31 16 -20 8 8 14 9 13 4 -3 -20 2 -32 29 -62 16 -18 32 -29 35 -25 4 3 7 -3
7 -15 0 -11 6 -25 13 -29 8 -4 26 -44 40 -89 15 -44 38 -100 52 -125 13 -24
29 -53 34 -64 5 -11 35 -48 66 -83 56 -61 116 -102 152 -102 10 0 35 -5 56
-11 48 -13 48 -43 0 -45 -29 -1 -68 -6 -144 -19 -13 -2 -46 -6 -74 -9 -60 -7
-103 -13 -170 -23 -27 -4 -81 -6 -120 -4 -114 6 -323 5 -420 -3 -240 -18 -324
-29 -359 -48 -11 -6 -23 -10 -26 -9 -11 5 -72 -52 -94 -87 -59 -95 -50 -202
29 -327 40 -63 64 -87 77 -79 7 4 8 2 4 -4 -7 -12 43 -43 84 -51 38 -8 219 -7
270 2 25 4 74 10 110 13 36 3 79 9 97 15 17 6 44 12 60 15 29 6 44 7 148 18
33 4 76 9 95 11 94 12 136 17 152 20 9 2 38 6 65 10 26 4 59 8 73 10 14 2 45
6 70 9 94 12 296 37 320 41 153 23 309 35 316 23 3 -4 10 -6 15 -3 5 3 6 0 3
-8 -2 -7 7 -22 21 -33 14 -10 25 -24 25 -31 0 -6 5 -15 12 -19 7 -5 8 -3 3 7
-5 8 5 1 22 -15 18 -17 29 -34 26 -39 -3 -6 -1 -7 5 -3 7 4 12 2 12 -4 0 -7 7
-10 15 -7 8 4 17 1 21 -5 4 -7 3 -8 -4 -4 -7 4 -12 1 -12 -8 0 -9 7 -13 20
-11 15 3 20 -2 20 -16 0 -11 4 -18 8 -15 11 6 53 -40 45 -48 -4 -3 -1 -6 6 -6
16 0 41 -25 41 -40 0 -6 4 -8 10 -5 13 8 80 -65 74 -79 -3 -6 2 -2 12 9 15 18
16 18 10 2 -4 -14 0 -20 14 -24 11 -3 20 -12 20 -20 0 -10 6 -13 16 -9 8 3 12
2 9 -4 -3 -6 -1 -10 4 -10 6 0 11 -8 11 -17 0 -9 3 -14 6 -10 3 3 17 -5 31
-19 13 -13 28 -24 34 -24 6 0 7 -5 4 -11 -4 -6 2 -13 14 -16 11 -3 18 -10 14
-16 -4 -6 0 -8 10 -4 11 4 17 1 17 -8 0 -8 9 -15 20 -15 11 0 19 -6 18 -12 -2
-7 3 -12 10 -10 6 1 11 -3 10 -10 -2 -7 3 -13 10 -14 6 -1 15 -2 18 -3 4 0 1
-8 -6 -17 -8 -8 -9 -14 -4 -13 25 4 43 -3 49 -21 3 -11 12 -19 18 -17 7 1 11
-4 9 -11 -1 -8 2 -11 7 -8 5 3 11 -1 15 -9 3 -8 13 -15 21 -15 10 0 13 -5 9
-12 -4 -7 -3 -8 4 -4 7 4 12 2 12 -4 0 -6 5 -8 10 -5 5 3 10 0 10 -8 0 -8 8
-21 18 -28 16 -13 16 -12 3 6 -9 13 -5 11 11 -5 14 -14 23 -28 21 -33 -2 -4 1
-6 9 -5 7 2 12 -3 10 -10 -1 -6 1 -11 5 -11 25 4 42 -3 48 -20 3 -10 15 -21
26 -24 12 -3 18 -10 14 -16 -4 -7 0 -8 11 -4 11 4 15 2 11 -4 -4 -6 3 -19 16
-29 21 -19 21 -19 7 1 -14 19 -14 19 3 6 9 -7 17 -20 17 -28 0 -8 4 -11 10 -8
6 3 10 1 10 -4 0 -6 7 -11 16 -11 8 0 13 -4 10 -9 -4 -5 7 -15 23 -22 16 -7
27 -17 25 -21 -3 -4 2 -8 10 -8 9 0 16 -5 16 -11 0 -6 9 -9 19 -6 14 3 18 1
14 -9 -3 -8 1 -14 11 -14 9 0 16 -4 16 -10 0 -5 5 -10 11 -10 5 0 7 5 3 11 -4
8 -1 8 12 1 34 -17 140 -9 166 13 18 16 20 16 9 2 -12 -15 -12 -17 3 -11 15 6
20 17 17 36 0 5 3 8 9 8 5 0 10 -6 10 -12 0 -7 7 -2 16 10 8 12 22 22 30 22 8
0 12 5 9 10 -3 6 -1 10 5 10 6 0 8 5 5 10 -4 6 -3 10 2 9 19 -3 34 2 29 10 -3
5 6 12 21 16 21 5 24 8 12 16 -12 7 -11 9 2 9 9 0 20 7 23 16 3 9 12 14 20 11
10 -4 13 1 11 19 -2 19 1 22 10 14 15 -12 30 3 20 19 -3 6 3 8 15 6 11 -2 22
0 25 6 4 5 0 9 -7 9 -7 1 0 6 15 13 16 7 29 16 28 20 -3 19 0 21 9 7 7 -11 10
-12 10 -2 0 15 30 49 30 35 1 -4 10 8 21 27 11 19 18 27 15 17 -3 -11 -2 -15
4 -12 6 3 10 13 10 21 0 8 4 12 10 9 6 -3 10 1 10 9 0 9 3 15 8 14 18 -4 40
15 35 29 -4 11 -2 14 5 9 7 -4 12 -2 12 4 0 6 5 8 10 5 6 -4 9 -1 8 7 -2 7 3
12 10 11 6 -2 12 4 12 12 0 8 7 15 16 15 8 0 12 5 9 10 -3 6 1 10 10 10 11 0
15 5 12 14 -4 10 -1 13 8 10 7 -3 16 3 20 15 3 11 18 26 32 33 15 7 29 19 31
27 3 9 0 11 -8 6 -9 -5 -11 -4 -6 4 6 9 11 9 24 -1 9 -8 13 -8 9 -2 -4 7 0 15
9 18 9 3 12 11 8 18 -5 8 -2 9 10 5 10 -4 15 -3 11 3 -3 6 2 10 11 10 10 0 14
3 10 7 -3 4 15 27 41 52 27 25 47 48 46 52 -2 4 6 6 17 4 13 -2 17 1 14 10 -3
7 4 19 16 25 11 6 18 15 15 20 -3 6 0 7 8 4 8 -3 18 0 23 7 4 7 3 10 -3 6 -5
-3 -10 0 -10 7 0 8 6 12 13 9 6 -2 18 5 26 16 8 12 19 18 24 13 4 -4 2 2 -6
13 -8 11 -10 17 -6 13 5 -4 15 -3 23 3 7 6 13 8 13 3 0 -5 8 5 19 21 14 23 16
34 7 45 -6 8 -1 7 11 -4 22 -18 22 -18 18 4 -4 19 -2 20 12 8 12 -9 15 -9 9 0
-4 7 -2 12 5 12 8 0 8 4 -1 15 -11 13 -10 14 5 9 14 -6 16 -4 10 7 -8 12 -6
12 8 0 15 -12 17 -12 11 4 -5 13 -4 16 4 11 7 -4 12 -2 12 4 0 6 18 28 39 49
22 22 37 42 34 45 -6 6 14 10 32 6 6 -1 7 2 3 6 -11 10 12 35 25 27 6 -3 7 -1
3 5 -4 7 9 27 29 47 21 20 33 39 29 46 -4 8 -3 9 5 5 12 -8 44 18 34 28 -4 3
-1 6 6 6 7 0 9 5 5 13 -5 7 0 6 11 -3 11 -9 16 -10 11 -3 -4 7 -2 13 3 13 6 0
11 4 11 10 0 5 -8 7 -17 3 -15 -5 -14 -3 2 10 11 8 24 13 29 9 5 -3 7 2 3 11
-4 11 -1 15 13 12 12 -2 17 1 14 10 -3 7 0 16 7 21 8 4 10 3 5 -4 -4 -7 -5
-12 -1 -12 3 0 10 11 15 25 5 14 15 24 22 23 7 -2 12 3 13 10 0 7 7 17 15 22
8 5 11 10 5 10 -5 0 -2 5 8 11 9 5 17 16 17 24 0 9 6 12 15 9 11 -5 13 -2 8
12 -5 13 -3 15 7 9 10 -6 12 -4 7 8 -4 12 -2 14 11 10 15 -6 16 -5 2 12 -8 10
-10 16 -3 12 6 -4 18 -1 26 7 8 8 18 12 21 8 4 -3 4 2 0 13 -4 11 -4 17 0 13
14 -12 35 15 24 30 -8 9 -7 11 5 7 10 -4 17 1 22 14 3 12 11 21 16 21 6 0 7
-5 3 -12 -4 -6 -3 -8 4 -4 6 3 9 15 7 26 -2 12 -1 19 3 16 4 -2 16 3 27 11 20
16 20 16 0 9 -19 -7 -18 -6 2 13 12 12 26 21 31 21 5 0 14 12 20 26 7 14 17
22 22 19 5 -3 7 0 4 9 -3 9 3 17 17 21 17 6 19 9 8 16 -11 7 -11 9 -1 9 8 0
10 5 6 13 -5 7 0 6 11 -3 11 -9 16 -10 11 -2 -4 7 -2 12 4 12 6 0 8 5 5 10 -3
6 -1 10 5 10 6 0 8 5 4 12 -5 8 -2 9 9 5 12 -5 17 -1 17 13 0 11 6 20 13 20 8
0 19 11 25 25 6 14 16 25 21 25 6 0 8 6 5 14 -3 8 3 16 16 19 12 3 19 10 16
15 -3 6 1 13 10 16 9 4 14 13 10 21 -3 8 -2 14 2 14 22 -4 30 3 27 21 -2 11 1
23 7 26 7 4 8 2 4 -4 -4 -7 -1 -12 9 -12 9 0 13 5 10 10 -3 6 -1 10 5 10 6 0
9 4 6 9 -3 5 1 12 10 15 8 3 13 10 10 14 -3 5 4 14 14 22 10 8 17 17 14 22 -3
4 2 8 10 8 9 0 16 5 16 10 0 6 11 20 24 31 17 15 23 29 21 48 -2 14 -2 20 1
14 9 -21 18 -15 38 22 10 19 22 32 27 30 4 -3 9 3 12 12 3 16 5 16 12 -2 5
-11 19 -30 31 -41 13 -12 20 -25 17 -28 -4 -3 1 -6 11 -6 9 0 15 -4 12 -8 -3
-5 6 -15 20 -22 16 -9 24 -21 22 -34 -2 -16 2 -20 17 -18 11 2 17 1 13 -3 -4
-4 0 -14 8 -22 8 -8 12 -18 9 -23 -3 -4 6 -11 20 -14 16 -4 22 -11 19 -21 -4
-10 0 -15 11 -15 15 0 15 -3 5 -15 -11 -13 -10 -14 4 -9 12 5 19 0 23 -15 3
-11 12 -21 20 -21 9 0 13 -6 9 -15 -3 -8 0 -14 7 -12 7 1 11 -3 10 -10 -2 -7
4 -10 13 -6 8 3 14 2 13 -3 -4 -21 2 -34 15 -34 8 0 18 -4 21 -10 4 -6 -1 -7
-12 -4 -13 5 -12 2 5 -10 12 -10 28 -14 35 -10 9 5 9 4 0 -6 -9 -10 -8 -16 3
-27 13 -13 11 -20 -13 -52 -15 -20 -37 -45 -48 -57 -11 -12 -31 -34 -45 -50
-14 -16 -41 -41 -59 -56 -18 -16 -33 -38 -35 -51 -1 -12 -5 -28 -9 -33 -3 -6
-5 -49 -4 -97 3 -80 6 -92 50 -179 66 -130 95 -173 171 -255 44 -48 84 -65
140 -58 35 5 104 31 116 45 3 3 18 14 33 23 55 35 137 111 137 126 0 6 5 11
10 11 6 0 10 9 10 19 0 11 6 26 13 33 6 8 19 27 27 43 16 30 43 47 38 23 -2
-7 5 -12 15 -12 14 2 15 -1 6 -13 -7 -8 -8 -13 -3 -12 21 4 34 -2 31 -13 -1
-7 4 -12 12 -10 12 3 12 1 0 -14 -9 -12 -9 -15 -1 -10 7 4 12 2 12 -4 0 -6 5
-8 10 -5 6 3 10 1 10 -4 0 -6 7 -11 16 -11 8 0 12 -4 9 -10 -3 -5 -1 -10 5
-10 6 0 9 -4 6 -9 -3 -5 4 -11 15 -14 15 -4 20 -11 15 -22 -5 -13 -2 -15 15
-10 15 5 19 4 15 -4 -4 -6 0 -14 8 -17 8 -3 18 -14 21 -25 4 -10 12 -19 20
-19 8 0 17 -10 20 -21 6 -17 9 -19 16 -8 7 11 9 10 9 -4 0 -10 7 -20 15 -23 8
-4 12 -10 9 -15 -5 -8 10 -13 29 -10 5 1 6 -3 2 -9 -3 -5 -1 -10 5 -10 6 0 9
-4 6 -9 -6 -9 22 -26 37 -23 4 1 7 -4 7 -12 0 -8 7 -17 16 -20 9 -3 12 -11 8
-18 -5 -8 -2 -9 9 -5 10 3 17 2 17 -2 0 -16 58 -71 75 -71 15 0 15 -3 5 -15
-11 -13 -10 -14 4 -9 11 4 19 -1 25 -17 6 -14 10 -18 11 -9 1 9 5 5 11 -9 6
-15 14 -21 25 -17 8 3 13 2 9 -3 -7 -13 5 -42 15 -36 5 3 17 -6 28 -20 11 -13
23 -21 27 -17 5 4 5 -2 1 -12 -5 -16 -4 -17 9 -6 13 11 14 10 8 -5 -5 -14 -3
-17 10 -12 9 3 16 3 16 -1 -4 -22 3 -31 19 -25 15 6 16 5 2 -12 -8 -10 -10
-16 -4 -12 14 8 56 -27 46 -38 -4 -5 1 -5 11 -2 11 4 17 1 17 -8 0 -8 5 -15
11 -15 5 0 7 -5 4 -10 -4 -6 -3 -10 2 -9 27 5 43 -3 43 -21 0 -11 5 -20 11
-20 5 0 7 -6 3 -13 -5 -7 0 -6 11 3 15 12 17 12 10 1 -6 -11 -4 -13 8 -8 11 4
14 2 10 -9 -5 -13 8 -19 31 -15 5 1 3 -6 -5 -15 -10 -13 -10 -16 -1 -10 15 9
52 -20 52 -40 0 -8 6 -11 15 -8 10 4 15 0 15 -14 0 -16 5 -20 20 -17 12 2 20
-1 19 -8 -3 -24 1 -37 12 -37 5 0 7 6 3 13 -5 8 -2 8 9 -2 9 -7 17 -20 17 -28
0 -8 5 -11 10 -8 6 3 10 1 10 -5 0 -7 7 -10 15 -6 8 3 14 2 14 -2 -3 -20 3
-32 16 -32 8 0 15 -5 15 -11 0 -5 5 -7 10 -4 6 4 10 3 9 -2 -4 -23 2 -32 18
-26 9 4 14 2 11 -3 -5 -8 42 -62 49 -56 8 6 23 1 19 -7 -4 -5 7 -20 23 -34 17
-14 27 -29 23 -33 -4 -5 0 -3 10 4 14 11 18 9 26 -15 6 -15 11 -22 11 -15 1
10 4 10 16 -2 8 -8 15 -19 15 -25 0 -6 7 -11 15 -11 8 0 15 -5 15 -11 0 -6 7
-8 16 -5 12 5 15 2 10 -9 -3 -9 -2 -13 4 -10 6 3 10 2 10 -4 0 -6 8 -8 18 -4
9 3 14 3 10 -2 -4 -4 4 -14 18 -22 32 -16 37 -16 28 0 -4 6 2 4 13 -6 16 -14
30 -17 64 -12 24 4 49 7 56 7 7 1 10 5 8 9 -6 8 25 23 43 20 6 -1 12 3 12 9 0
6 5 8 12 4 8 -5 9 -2 5 10 -4 10 -3 15 3 11 6 -4 25 8 42 27 17 18 35 32 40
31 4 -2 8 2 8 8 0 5 5 7 10 4 6 -3 10 1 10 9 0 9 6 16 14 16 13 0 31 27 28 42
-1 4 4 5 12 2 7 -3 19 2 26 10 7 9 17 13 24 9 6 -3 8 -3 4 1 -3 4 8 22 25 40
21 22 35 30 39 22 5 -7 8 -4 8 7 0 9 8 17 18 17 14 0 15 2 2 10 -13 9 -13 10
0 11 8 1 18 1 23 0 4 0 7 7 7 17 0 14 2 15 10 2 8 -12 10 -10 10 9 0 16 4 21
14 18 9 -4 17 2 21 14 4 10 13 19 21 19 9 0 12 5 8 12 -5 8 -2 9 10 5 9 -4 14
-3 11 2 -5 9 12 26 28 26 4 0 7 4 6 9 0 5 6 13 15 18 9 5 14 13 11 17 -2 5 3
8 13 7 10 0 16 5 14 13 -3 12 -1 12 14 0 10 -8 15 -9 11 -3 -8 13 36 60 65 69
16 6 17 9 6 22 -11 14 -10 15 10 9 16 -5 22 -4 20 6 -2 7 5 12 14 12 11 -1 15
5 13 17 -3 13 1 16 12 12 11 -4 14 -2 9 5 -5 8 1 12 16 12 18 0 20 2 8 10 -13
8 -13 10 0 10 8 0 23 10 35 23 11 13 16 16 11 7 -5 -8 6 2 26 22 19 21 39 35
44 30 4 -4 2 1 -5 11 -12 15 -12 17 3 11 10 -4 16 -1 16 9 0 11 7 15 21 12 18
-4 19 -2 8 11 -10 12 -10 15 2 12 8 -2 13 4 13 13 -1 11 6 15 22 13 13 -1 23
1 23 4 -3 20 2 32 11 27 6 -3 10 -1 10 5 0 6 5 8 13 4 7 -5 7 -1 -3 12 -8 10
-11 16 -6 12 13 -11 46 10 46 29 0 13 3 13 15 3 13 -11 14 -10 9 3 -3 10 2 20
16 27 18 10 19 14 9 28 -11 14 -11 15 0 5 7 -6 19 -10 25 -7 6 2 24 -22 41
-53 36 -70 112 -151 182 -195 28 -18 70 -46 93 -63 43 -30 139 -53 210 -49 19
1 47 2 62 3 20 1 34 11 52 39 13 20 33 48 45 61 11 13 18 27 16 31 -3 5 -1 10
5 12 6 2 11 19 11 38 2 46 -41 137 -130 275 -14 22 -24 43 -23 48 1 4 -3 7 -8
7 -6 0 -10 5 -10 10 0 6 -11 27 -23 48 -34 54 -88 214 -76 228 5 6 5 14 1 18
-4 4 0 6 8 4 9 -2 14 3 12 11 -2 8 3 11 12 8 9 -4 15 -1 13 6 -1 7 6 11 16 11
17 -2 17 -1 2 16 -15 16 -14 17 12 13 22 -4 25 -2 13 6 -11 8 -12 11 -2 11 8
0 10 5 6 13 -5 7 0 6 11 -3 11 -9 16 -10 11 -2 -4 7 -2 12 5 12 8 0 7 5 -2 17
-8 9 -9 14 -4 11 6 -4 21 0 35 8 14 7 21 13 17 14 -4 0 -2 6 5 14 7 8 17 11
22 8 5 -3 7 2 3 11 -4 11 -1 17 9 17 8 0 13 4 9 9 -3 5 4 12 15 16 18 6 24 17
21 37 0 4 7 4 16 1 11 -4 14 -3 9 5 -7 11 6 17 27 13 5 -1 6 3 2 9 -3 6 -11 7
-17 4 -7 -4 -8 -2 -4 4 4 7 12 12 19 12 6 0 24 15 40 33 16 17 26 26 22 18 -5
-9 -4 -12 3 -7 6 4 8 14 5 23 -5 13 -2 15 11 10 10 -4 15 -3 11 3 -3 5 3 15
14 22 15 9 17 15 9 25 -8 11 -7 12 7 7 13 -5 16 -4 11 4 -4 7 -1 12 9 12 11 0
15 5 11 16 -3 8 -2 12 4 9 6 -3 10 -3 10 2 0 4 10 19 21 33 l21 25 -16 -30
-17 -30 21 25 c11 14 29 36 40 48 11 13 20 28 20 34 0 6 7 7 16 4 14 -5 15 -4
4 9 -12 14 -5 20 21 17 4 -1 6 6 5 16 0 9 4 16 9 15 6 0 19 11 29 25 l20 27
-25 -20 -24 -20 19 23 c11 12 25 22 33 22 8 0 11 5 8 10 -3 6 2 10 12 10 14 0
15 2 5 9 -11 7 -10 9 3 15 9 3 14 10 11 15 -7 10 50 62 58 54 3 -4 6 1 6 10 0
10 5 17 11 17 6 0 9 7 5 15 -3 8 -2 14 2 14 4 -1 14 -1 22 0 13 1 13 2 0 11
-13 8 -12 10 2 10 10 0 17 6 15 13 -1 6 4 11 11 9 8 -1 11 2 7 8 -3 5 -1 10 5
10 6 0 8 5 4 12 -5 7 -2 9 7 6 10 -4 15 1 16 14 1 11 17 34 35 50 18 16 34 33
34 39 1 5 2 14 3 19 0 6 9 10 19 11 10 0 12 3 5 6 -8 3 -3 15 17 36 17 18 30
36 30 40 0 5 4 5 10 2 5 -3 7 0 5 8 -3 7 8 27 24 44 22 23 26 34 18 43 -9 8
-7 9 7 4 13 -5 17 -4 12 4 -3 6 3 13 15 17 19 6 20 7 2 20 -17 13 -17 13 2 12
13 -1 20 4 19 15 -1 10 2 16 6 13 5 -3 17 8 26 24 10 17 22 27 28 24 6 -4 5 0
-2 9 -10 13 -10 17 3 22 8 3 15 13 15 21 0 10 5 13 11 9 8 -5 10 1 7 18 -4 22
-2 24 16 20 18 -5 19 -3 8 10 -10 12 -10 17 1 27 8 6 17 7 22 3 4 -4 5 5 3 21
-5 24 -3 26 10 15 11 -9 14 -9 9 -1 -4 6 -3 14 2 18 6 3 7 13 4 22 -4 10 -2
14 4 10 6 -4 21 15 34 41 13 26 31 53 39 60 13 10 12 11 -5 6 -18 -6 -18 -5 3
16 13 12 21 29 18 37 -4 10 -2 13 8 10 10 -4 13 2 12 23 -2 21 2 26 13 22 10
-4 13 -1 8 11 -3 9 -2 17 4 17 6 0 7 5 4 10 -3 6 -2 10 3 10 9 0 27 47 24 63
-1 4 3 7 9 7 6 0 8 7 5 16 -4 10 -2 13 6 8 8 -5 9 -2 5 10 -4 9 -3 15 2 12 5
-3 11 1 14 8 3 8 1 17 -6 20 -9 3 -9 5 1 5 6 1 12 8 12 17 0 8 5 12 10 9 7 -4
9 3 6 20 -4 21 -2 26 11 21 13 -5 14 -4 3 9 -9 11 -9 15 0 15 6 0 10 8 8 18
-2 9 2 22 10 27 7 6 14 25 14 42 1 18 7 34 14 37 7 3 11 16 10 30 -2 14 3 27
11 30 8 3 11 11 8 16 -4 6 -1 17 5 25 9 11 9 15 1 15 -17 0 -13 14 9 38 12 12
16 22 9 22 -8 0 -7 5 2 17 11 12 11 17 2 20 -10 4 -10 7 0 18 7 7 14 11 18 10
3 -2 4 14 3 36 -1 21 2 39 6 39 13 0 29 56 20 70 -6 9 -2 19 8 27 16 12 16 13
-1 7 -13 -5 -16 -2 -11 10 3 9 9 14 13 12 4 -3 7 14 8 35 1 22 8 48 15 57 9
11 10 14 1 8 -7 -4 -13 -3 -13 3 0 5 4 12 9 16 13 7 15 755 2 755 -5 0 -10 15
-10 33 -2 43 -6 69 -15 88 -4 9 -6 20 -5 25 1 5 0 12 -1 17 -1 4 -3 13 -4 20
-1 6 -7 11 -14 10 -6 -2 -9 4 -6 12 4 9 0 15 -7 15 -11 0 -11 2 -1 8 10 7 10
14 -2 37 -8 16 -12 33 -9 38 4 6 1 7 -7 2 -10 -6 -12 -4 -7 9 6 14 3 17 -10
12 -14 -6 -15 -4 -6 5 12 12 -1 56 -21 70 -5 4 -6 11 -2 17 3 6 -1 15 -10 20
-11 6 -15 17 -12 30 4 15 2 19 -8 15 -12 -5 -19 8 -15 30 0 4 -4 7 -11 7 -6 0
-8 3 -5 7 4 3 -1 12 -11 19 -14 11 -14 14 -2 14 9 1 6 5 -7 10 -13 5 -23 14
-23 20 0 6 5 8 12 4 7 -4 8 -3 4 5 -6 9 -11 9 -24 -1 -14 -12 -14 -10 -2 12 7
14 9 22 5 18 -8 -7 -35 15 -35 28 0 4 -11 22 -25 39 -13 18 -21 36 -17 40 4 3
2 5 -3 3 -6 -2 -11 1 -12 7 -1 5 -11 12 -22 17 -12 4 -26 19 -31 33 -5 14 -12
25 -15 25 -4 0 -3 -5 1 -12 5 -7 3 -8 -5 -4 -7 5 -10 14 -7 22 3 8 1 14 -5 14
-14 0 -39 26 -39 40 0 6 -4 8 -10 5 -9 -6 -14 8 -11 28 1 5 -3 6 -9 2 -5 -3
-10 -2 -10 4 0 5 -9 13 -20 16 -11 4 -18 11 -15 16 4 5 0 9 -9 9 -8 0 -16 5
-18 10 -2 6 -13 12 -25 13 -12 0 -20 4 -17 8 6 10 -75 89 -91 89 -3 0 -3 -5 1
-12 4 -7 3 -8 -5 -4 -6 4 -9 11 -6 16 6 10 -39 40 -60 40 -9 0 -13 5 -10 10 3
6 -1 10 -9 10 -9 0 -16 5 -16 10 0 6 -7 10 -16 10 -9 0 -12 5 -8 13 4 6 4 9
-1 5 -8 -7 -64 19 -76 35 -3 5 -9 8 -13 8 -20 -3 -26 0 -21 9 4 6 3 10 -2 9
-24 -4 -53 2 -48 11 5 9 -24 15 -49 11 -5 -1 -4 5 3 13 10 12 9 14 -10 9 -14
-4 -20 -2 -16 4 4 6 -4 9 -19 7 -17 -1 -24 2 -21 10 5 13 -20 15 -41 3 -8 -5
-10 -3 -6 6 3 8 0 18 -7 23 -8 4 -10 3 -5 -4 4 -7 3 -12 -3 -12 -5 0 -12 6
-14 13 -4 9 -8 9 -15 -2 -8 -11 -11 -9 -17 9 -6 18 -9 20 -16 9 -7 -12 -9 -12
-9 0 0 7 -6 11 -14 8 -8 -3 -17 -1 -20 6 -3 8 -5 7 -5 -2 -1 -10 -7 -7 -20 8
-18 20 -20 21 -24 4 -4 -16 -5 -16 -6 -1 -1 12 -6 15 -17 11 -9 -3 -20 0 -25
8 -7 12 -9 12 -9 -1 0 -12 -2 -13 -9 -1 -5 7 -28 14 -52 16 -29 1 -43 6 -41
14 1 7 -2 10 -8 6 -6 -3 -8 -10 -5 -15 3 -5 0 -12 -6 -16 -7 -4 -9 -3 -5 4 8
13 -11 26 -39 27 -11 0 -25 4 -32 8 -6 4 -15 2 -19 -4 -4 -8 -9 -7 -16 2 -8
11 -11 12 -15 1 -4 -10 -9 -9 -20 5 -8 10 -12 13 -9 6 4 -6 2 -14 -4 -18 -5
-3 -10 -1 -10 6 0 6 -8 9 -20 6 -11 -3 -20 -1 -20 4 0 5 -4 9 -10 9 -5 0 -6
-8 -3 -17 6 -15 5 -16 -9 -3 -9 8 -14 18 -11 22 2 4 -3 5 -11 2 -9 -3 -14 -10
-11 -14 3 -5 0 -12 -6 -16 -8 -4 -9 -3 -5 4 7 12 -5 16 -33 13 -7 -2 -11 1 -8
6 3 5 -3 9 -14 9 -10 0 -19 -3 -19 -7 0 -3 -20 -5 -44 -4 -36 2 -43 0 -39 -12
5 -13 2 -13 -19 1 -21 14 -28 14 -39 4 -17 -16 -59 -19 -59 -5 0 6 -5 5 -13
-2 -10 -8 -17 -7 -27 2 -9 9 -11 9 -6 0 4 -7 -1 -12 -11 -12 -34 -1 -68 -7
-79 -13 -6 -4 -21 -6 -33 -3 -11 2 -21 0 -21 -5 0 -5 -7 -7 -15 -4 -8 4 -15 1
-15 -6 0 -7 -7 -10 -15 -6 -8 3 -15 0 -15 -7 0 -8 -4 -6 -10 3 -6 9 -10 11
-10 3 0 -7 -7 -10 -15 -7 -8 3 -17 0 -20 -8 -3 -8 -17 -13 -35 -12 -20 1 -30
-3 -30 -12 0 -8 -6 -11 -15 -8 -8 4 -23 0 -32 -7 -14 -12 -16 -12 -8 0 5 10 4
12 -3 7 -7 -4 -12 -14 -12 -22 0 -8 -5 -14 -11 -14 -5 0 -7 4 -4 10 8 14 -26
0 -44 -18 -11 -11 -15 -11 -22 0 -7 11 -9 11 -9 0 0 -7 -4 -10 -10 -7 -5 3
-10 -1 -10 -10 0 -10 -7 -15 -17 -13 -10 2 -26 -6 -35 -17 -10 -11 -17 -15
-18 -7 0 6 -5 12 -11 12 -5 0 -7 -5 -3 -12 5 -7 2 -9 -9 -5 -12 4 -14 2 -10
-10 4 -11 2 -14 -5 -9 -6 4 -22 0 -35 -9 -13 -8 -27 -12 -31 -8 -4 5 -6 1 -4
-7 2 -8 -3 -14 -9 -12 -7 1 -13 -3 -13 -10 0 -6 -3 -8 -7 -5 -3 4 -12 -1 -20
-11 -10 -11 -12 -12 -8 -2 3 8 -2 5 -11 -7 -9 -13 -25 -23 -36 -23 -17 0 -18
-3 -9 -14 10 -11 9 -14 -1 -12 -7 1 -19 6 -27 10 -10 6 -12 5 -7 -2 4 -7 2
-12 -4 -12 -6 0 -8 -4 -5 -10 6 -9 -8 -14 -28 -11 -5 1 -6 -3 -2 -9 3 -5 0
-10 -7 -10 -7 0 -22 -12 -32 -27 -9 -16 -15 -20 -12 -10 4 13 -4 9 -25 -12
-17 -17 -35 -31 -40 -31 -5 0 -9 -5 -9 -12 0 -9 3 -9 12 0 7 7 17 12 22 12 6
0 2 -6 -9 -13 -20 -11 -25 -13 -46 -16 -5 0 -8 -5 -5 -10 3 -5 -2 -15 -11 -22
-14 -12 -16 -12 -9 1 4 8 1 6 -8 -4 -8 -10 -13 -23 -10 -27 3 -5 -1 -6 -9 -4
-7 3 -22 -5 -33 -17 l-19 -23 25 20 25 20 -24 -27 c-13 -15 -29 -24 -35 -21
-6 4 -5 -1 3 -10 12 -15 12 -17 -3 -11 -12 5 -19 0 -23 -15 -3 -11 -9 -19 -13
-16 -4 2 -13 -7 -20 -20 -7 -14 -17 -25 -22 -25 -5 0 -6 -4 -3 -10 3 -5 -2
-10 -12 -10 -14 0 -15 -2 -4 -9 9 -6 10 -11 2 -15 -6 -4 -11 -4 -11 -1 0 4 -7
0 -15 -9 -18 -18 -20 -30 -2 -20 6 4 3 -2 -7 -14 -20 -23 -32 -30 -21 -12 3 6
1 10 -5 10 -6 0 -8 -11 -6 -25 3 -17 0 -25 -9 -25 -9 0 -12 -6 -9 -15 5 -11 2
-13 -9 -9 -12 4 -15 1 -12 -15 2 -12 -1 -21 -6 -21 -6 0 -7 -5 -3 -12 4 -7 3
-8 -4 -4 -7 4 -12 16 -12 27 0 17 -11 24 -33 20 -4 -1 -3 8 3 19 8 16 8 20 -4
20 -8 0 -18 5 -22 12 -5 7 -3 8 7 3 12 -8 12 -6 0 8 -7 9 -17 14 -22 11 -5 -3
-6 2 -3 10 4 10 -1 18 -11 22 -12 5 -13 9 -5 14 9 5 6 10 -9 15 -12 3 -19 11
-16 16 4 5 -2 9 -12 9 -12 0 -14 3 -6 8 9 6 7 12 -7 22 -11 8 -20 20 -20 28 0
7 -4 10 -10 7 -5 -3 -10 3 -10 14 0 12 -7 21 -15 21 -8 0 -15 4 -15 8 0 5 -7
17 -16 28 -8 10 -12 13 -8 5 5 -10 3 -12 -5 -7 -7 5 -10 14 -7 22 3 9 0 11
-11 7 -11 -4 -14 -2 -9 5 4 7 1 12 -9 12 -9 0 -13 5 -10 10 3 6 1 10 -5 10 -6
0 -8 5 -5 10 4 6 1 9 -7 8 -7 -2 -12 3 -10 11 3 12 1 12 -14 0 -12 -9 -15 -9
-10 -1 4 7 2 12 -5 12 -7 0 -10 3 -6 6 8 8 -34 54 -49 54 -8 0 -18 9 -24 21
-7 12 -18 18 -26 15 -7 -3 -13 -1 -11 3 3 13 -44 52 -55 45 -4 -3 -7 0 -6 8 2
7 -5 12 -14 12 -10 -1 -16 2 -13 6 6 10 -13 25 -50 38 -16 6 -24 11 -17 11 7
1 10 6 7 11 -5 8 -12 7 -23 -2 -13 -11 -14 -11 -8 0 5 9 1 15 -13 19 -12 3
-21 13 -22 22 0 12 -2 11 -9 -4 -7 -16 -9 -17 -9 -3 -1 9 -5 20 -11 23 -6 3
-7 -1 -4 -12 3 -11 0 -9 -8 5 -8 12 -17 19 -21 16 -4 -4 -7 -3 -7 3 0 6 -10 9
-22 6 -19 -4 -20 -3 -8 6 13 9 13 11 -2 11 -10 0 -18 5 -18 11 0 8 -4 8 -14 0
-11 -9 -16 -9 -22 0 -5 8 -3 10 7 5 8 -4 5 0 -5 8 -11 9 -28 16 -38 16 -10 0
-18 6 -18 13 0 8 -4 7 -10 -3 -8 -12 -10 -12 -10 -1 0 8 -7 11 -19 8 -15 -3
-18 -1 -14 11 5 12 1 14 -16 9 -15 -3 -24 0 -28 10 -5 12 -7 12 -14 1 -6 -10
-9 -8 -9 7 0 17 -2 17 -10 5 -7 -11 -10 -11 -10 -2 0 10 -5 10 -21 1 -14 -7
-19 -7 -15 0 10 16 -28 32 -44 18 -10 -9 -11 -9 -6 1 5 8 0 12 -13 12 -11 0
-25 8 -30 18 -6 9 -11 12 -11 6 0 -13 -30 -14 -30 -1 0 5 -8 3 -17 -4 -9 -8
-14 -9 -11 -4 3 6 -1 17 -10 25 -14 13 -15 12 -9 -3 3 -9 2 -19 -4 -22 -5 -4
-8 -1 -7 6 2 7 -1 13 -7 14 -5 0 -16 4 -22 8 -8 5 -13 3 -13 -5 0 -8 -3 -9 -8
-3 -6 9 -22 13 -74 18 -10 1 -18 4 -18 8 0 10 -44 5 -52 -6 -5 -6 -8 -6 -8 1
0 6 -14 10 -32 9 -18 -1 -40 2 -49 6 -8 4 -21 4 -28 -1 -8 -4 -27 -4 -43 0
-17 5 -26 5 -23 -1 4 -5 1 -9 -4 -9 -6 0 -11 6 -11 13 0 8 -3 8 -9 -2 -7 -11
-10 -10 -14 5 -4 16 -5 16 -6 2z m-211 -38 c0 -5 -7 -7 -15 -4 -8 4 -12 10 -9
15 6 11 24 2 24 -11z m520 0 c0 -5 -5 -10 -11 -10 -5 0 -7 5 -4 10 3 6 8 10
11 10 2 0 4 -4 4 -10z m-1520 -64 c0 -3 -4 -8 -10 -11 -5 -3 -10 -1 -10 4 0 6
5 11 10 11 6 0 10 -2 10 -4z m5684 -354 c3 -5 -1 -9 -9 -9 -8 0 -15 4 -15 9 0
4 4 8 9 8 6 0 12 -4 15 -8z m-3176 -47 c-3 -3 -9 2 -12 12 -6 14 -5 15 5 6 7
-7 10 -15 7 -18z m3757 -1954 c3 -5 2 -12 -3 -15 -5 -3 -9 1 -9 9 0 17 3 19
12 6z m-11050 -1521 c-3 -5 -12 -10 -18 -10 -7 0 -6 4 3 10 19 12 23 12 15 0z
m4425 6 c0 -2 -7 -7 -16 -10 -8 -3 -12 -2 -9 4 6 10 25 14 25 6z m321 -539
c-10 -9 -11 -8 -5 6 3 10 9 15 12 12 3 -3 0 -11 -7 -18z m2636 -1852 c0 -8 -4
-12 -9 -9 -5 3 -6 10 -3 15 9 13 12 11 12 -6z"/>
<path d="M11640 9656 c0 -2 8 -10 18 -17 15 -13 16 -12 3 4 -13 16 -21 21 -21
13z"/>
<path d="M425 7510 c3 -5 8 -10 11 -10 2 0 4 5 4 10 0 6 -5 10 -11 10 -5 0 -7
-4 -4 -10z"/>
<path d="M6350 5930 c0 -5 5 -10 11 -10 5 0 7 5 4 10 -3 6 -8 10 -11 10 -2 0
-4 -4 -4 -10z"/>
<path d="M11225 5850 c-3 -5 -1 -10 4 -10 6 0 11 5 11 10 0 6 -2 10 -4 10 -3
0 -8 -4 -11 -10z"/>
<path d="M3795 3550 c-3 -5 -1 -10 4 -10 6 0 11 5 11 10 0 6 -2 10 -4 10 -3 0
-8 -4 -11 -10z"/>
</g>
</svg>
